<svg width="123" height="104" viewBox="0 0 123 104" fill="none" xmlns="http://www.w3.org/2000/svg">
<g clip-path="url(#clip0)">
<path fill-rule="evenodd" clip-rule="evenodd" d="M76.7201 8.51009C78.8001 6.56009 81.1701 4.98009 84.0201 3.98009C91.4001 1.39009 101.23 3.51009 107.92 7.17009C113.28 10.1001 118.83 14.7001 122.88 19.5801C117.31 21.7401 109.53 22.7701 101.09 23.2801C94.6401 23.6701 88.6801 22.7101 82.9401 19.7901L83.2001 20.1101L82.9701 19.9401C79.9501 17.8401 77.0101 15.7301 74.3601 13.5501L76.6701 8.59009L76.7201 8.51009Z" fill="#5E990B"/>
<path fill-rule="evenodd" clip-rule="evenodd" d="M76.5999 8.63011L76.7199 8.51011L76.6799 8.58011L74.3699 13.5401C72.7499 12.2101 71.1499 10.7101 69.6299 9.47011L73.5799 1.60011C74.2999 0.160114 76.0499 -0.419886 77.4899 0.300114C78.9299 1.02011 79.5099 2.77011 78.7899 4.21011L76.5999 8.63011Z" fill="#7F573C"/>
<path fill-rule="evenodd" clip-rule="evenodd" d="M82.15 27.1C80.72 24.77 78.99 22.56 76.92 20.48C74.89 18.45 72.52 16.53 69.78 14.76C61.84 11.81 54.76 11 48.46 11.97C41.74 13 35.87 16.09 30.79 20.8C21.3 29.6 20.82 36.74 20.22 45.58C19.97 49.25 19.71 53.19 18.85 57.67C17.9 62.65 16.43 67.06 14.58 70.86C12.62 74.89 10.23 78.24 7.58001 80.86C5.34001 83.87 4.50001 86.38 5.13001 88.37C5.14001 88.4 5.15001 88.43 5.16001 88.46C5.85001 90.51 8.16001 92.33 12.15 93.91C12.2 93.93 12.25 93.95 12.3 93.97C25.37 99.13 38.93 99.38 50.97 95.29C62.93 91.23 73.39 82.87 80.38 70.76C84.58 63.48 87.22 55.58 87.52 47.71C87.78 40.7 86.18 33.68 82.15 27.1ZM82.94 19.79C84.21 21.32 85.35 22.9 86.35 24.54C90.92 31.99 92.73 39.94 92.43 47.89C92.1 56.6 89.22 65.27 84.64 73.22C77.02 86.41 65.6 95.52 52.55 99.96C39.44 104.41 24.7 104.15 10.51 98.55C10.46 98.53 10.41 98.52 10.36 98.5C4.91001 96.35 1.65001 93.51 0.480008 90C0.460008 89.96 0.450008 89.91 0.430008 89.86C-0.719992 86.22 0.420008 82.18 3.74001 77.78C3.81001 77.68 3.90001 77.59 3.99001 77.5C6.30001 75.25 8.40001 72.31 10.14 68.73C11.81 65.3 13.14 61.3 14.01 56.75C14.81 52.56 15.07 48.78 15.3 45.26C15.97 35.33 16.51 27.33 27.43 17.2C33.21 11.84 39.95 8.31003 47.69 7.11003C54.31 6.09003 61.61 6.78003 69.64 9.49003C74.92 12.07 79.43 15.43 82.94 19.79Z" fill="#292929"/>
<path fill-rule="evenodd" clip-rule="evenodd" d="M83.65 26.2301C82.16 23.8301 80.35 21.5601 78.19 19.4201C76.07 17.3301 73.59 15.3601 70.73 13.5401C62.43 10.5101 55.04 9.67013 48.45 10.6701C41.43 11.7301 35.3 14.9101 29.99 19.7501C20.07 28.8001 19.57 36.1401 18.95 45.2301C18.69 49.0001 18.42 53.0501 17.52 57.6601C16.53 62.7801 14.99 67.3101 13.06 71.2201C11 75.3601 8.49998 78.8101 5.73998 81.5001C3.39998 84.5901 2.51998 87.1701 3.17998 89.2201C3.18998 89.2501 3.19998 89.2801 3.20998 89.3101C3.92998 91.4201 6.33998 93.2901 10.51 94.9101C10.56 94.9301 10.61 94.9501 10.67 94.9701C24.33 100.28 38.49 100.53 51.07 96.3301C63.57 92.1601 74.49 83.5601 81.8 71.1101C86.19 63.6301 88.95 55.5001 89.26 47.4101C89.53 40.2201 87.86 33.0001 83.65 26.2301Z" fill="#FF6767"/>
<path fill-rule="evenodd" clip-rule="evenodd" d="M77.3999 11.55C93.9199 12.29 98.2799 11.5 113.73 17.5C97.3899 16.78 93.0199 16.42 77.3999 11.55Z" fill="#537918"/>
</g>
<defs>
<clipPath id="clip0">
<rect width="122.88" height="103.04" fill="white"/>
</clipPath>
</defs>
</svg>
